<svg id="Layer_1" data-name="Layer 1" xmlns="http://www.w3.org/2000/svg" viewBox="0 0 90 80.2"><defs><style>.cls-1{fill:none;}.cls-2{font-size:36px;font-family:MuseoSansRounded-700, Museo Sans Rounded;font-weight:700;}</style></defs><polygon class="cls-1" points="52 21 55.6 9.5 54 9.8 50.4 21.3 52 21"/><polygon class="cls-1" points="64.2 18.6 67.8 7.1 59.9 8.6 56.4 20.1 64.2 18.6"/><polygon class="cls-1" points="70.1 17.4 73.7 5.9 72.1 6.2 68.6 17.7 70.1 17.4"/><polygon class="cls-1" points="46.1 22.1 49.6 10.6 41.8 12.2 38.2 23.7 46.1 22.1"/><polygon class="cls-1" points="27.9 25.7 31.5 14.2 23.7 15.7 20.1 27.2 27.9 25.7"/><rect class="cls-1" x="6.7" y="34.2" width="79.4" height="42.12"/><polygon class="cls-1" points="32.7 24.8 33.9 24.5 37.4 13 35.9 13.3 32.3 24.8 32.7 24.8"/><polygon class="cls-1" points="9.8 29.2 13.4 17.8 4.3 19.6 6.3 29.9 9.8 29.2"/><polygon class="cls-1" points="15.8 28.1 19.3 16.6 17.8 16.9 14.2 28.4 15.8 28.1"/><polygon class="cls-1" points="74.5 16.6 84.2 14.6 82.2 4.3 78.1 5.1 74.5 16.6"/><path d="M88,30.3H24.9l4.9-1h0l6-1.2h0L48,25.8h0l.5-.2,17.6-3.4h0l2-.4,18.8-3.7a1.9,1.9,0,0,0,1.5-2.3L85.6,1.6A2,2,0,0,0,83.3,0L72,2.3l-1.8.3h0l-15.1,3-3,.6h0L38.8,8.8,34,9.7h0L21.8,12.1h0l-5.9,1.2h0L1.6,16.1A2,2,0,0,0,0,18.4L2.8,32.3v46a1.8,1.8,0,0,0,1.9,1.9H88a1.9,1.9,0,0,0,2-1.9V32.2A2,2,0,0,0,88,30.3ZM31.5,14.2,27.9,25.7l-7.8,1.5,3.6-11.5Zm18.1-3.6L46.1,22.1l-7.9,1.6,3.6-11.5ZM67.8,7.1,64.2,18.6l-7.8,1.5L59.9,8.6Zm5.9-1.2L70.1,17.4l-1.5.3L72.1,6.2ZM55.6,9.5,52,21l-1.6.3L54,9.8ZM37.4,13,33.9,24.5l-1.2.3h-.4l3.6-11.5ZM19.3,16.6,15.7,28.1l-1.5.3,3.6-11.5Zm64.9-2-9.7,2L78.1,5.1l4.1-.8ZM13.4,17.8,9.8,29.2l-3.5.7-2-10.3ZM86.1,76.3H6.7V34.2H86.1Z"/><text class="cls-2" transform="translate(19.3 67.8)">QF</text></svg>