<svg id="Layer_1" data-name="Layer 1" xmlns="http://www.w3.org/2000/svg" viewBox="0 0 470.4 52.9"><defs><style>.cls-1{fill:#ed2024;}.cls-2{fill:#fff;}</style></defs><path class="cls-1" d="M29.3,9.2c15.5,0,26.4,11.5,26.4,26.1a26.3,26.3,0,0,1-5.6,16.3l3.5,3.2a2.7,2.7,0,0,1,.3,4.2l-1.3,1.4c-1.3,1.4-2.8,1.5-4,.3L44.9,57a25.2,25.2,0,0,1-15.6,5.1C13.8,62.1,2.9,50.3,2.9,35.3S13.9,9.2,29.3,9.2Zm0,44.4a15.2,15.2,0,0,0,8.9-2.8l-3.5-3.4a2.6,2.6,0,0,1-.2-4.1l1.3-1.4c1.3-1.4,2.7-1.6,3.9-.4l3.6,3.7a18.5,18.5,0,0,0,2.9-9.9c0-10-7.3-17.6-16.9-17.6S12.5,25.3,12.5,35.3,19.7,53.6,29.3,53.6Z" transform="translate(-2.9 -9.2)"/><path class="cls-2" d="M63.9,13.1a2.7,2.7,0,0,1,3-3h3.2a2.8,2.8,0,0,1,3.1,3V42.8c0,6.9,4.4,10.8,11.3,10.8s11.3-3.9,11.3-10.8V13.1a2.7,2.7,0,0,1,3-3h3.3a2.7,2.7,0,0,1,3,3V42.8c0,11.5-8.3,19.3-20.6,19.3S63.9,54.3,63.9,42.8Z" transform="translate(-2.9 -9.2)"/><path class="cls-2" d="M116.3,13.1a2.7,2.7,0,0,1,2.9-3h3.3a2.7,2.7,0,0,1,3,3V58.2a2.7,2.7,0,0,1-3,3h-3.3c-1.9,0-2.9-1-2.9-3Z" transform="translate(-2.9 -9.2)"/><path class="cls-2" d="M160.6,9.2a28.6,28.6,0,0,1,16.7,5.1c1.6,1.2,1.6,2.6.6,4.2l-1.3,2.1c-1,1.6-2.4,1.8-4.1.7A21.6,21.6,0,0,0,161,17.7c-11.2,0-17.1,8.1-17.1,17.6s6.1,18.3,17.2,18.3c5.7,0,10.1-2.8,12.5-4.5s3-1.1,4.2.5l1.4,2a2.7,2.7,0,0,1-.4,4.1,28.7,28.7,0,0,1-18.1,6.4c-16.1,0-26.4-11.6-26.4-26.7S145.2,9.2,160.6,9.2Z" transform="translate(-2.9 -9.2)"/><path class="cls-2" d="M188,13.1a2.7,2.7,0,0,1,2.9-3h3.4a2.7,2.7,0,0,1,2.9,3V30.9h6.7l10.8-18.7a3.6,3.6,0,0,1,3.5-2.1h3.6c2.3,0,3.2,1.6,2.1,3.6L211.5,34.4v.2l13.3,23c1.2,2.1.3,3.6-2.1,3.6h-4a3.6,3.6,0,0,1-3.5-2.1L203.9,38.9h-6.7V58.2c0,2-1,3-2.9,3h-3.4c-1.9,0-2.9-1-2.9-3Z" transform="translate(-2.9 -9.2)"/><path class="cls-1" d="M251.2,13.1a2.7,2.7,0,0,1,3-3h23.4a2.7,2.7,0,0,1,3,3v2a2.7,2.7,0,0,1-3,3H260.4V32.5h14a2.7,2.7,0,0,1,3,3v2a2.7,2.7,0,0,1-3,3h-14V58.2c0,2-1,3-2.9,3h-3.3a2.7,2.7,0,0,1-3-3Z" transform="translate(-2.9 -9.2)"/><path class="cls-2" d="M288.1,13.1a2.7,2.7,0,0,1,2.9-3h3.3a2.7,2.7,0,0,1,3,3V53.2h19.1a2.7,2.7,0,0,1,3,3v2a2.7,2.7,0,0,1-3,3H291c-1.9,0-2.9-1-2.9-3Z" transform="translate(-2.9 -9.2)"/><path class="cls-2" d="M325.6,13.1a2.7,2.7,0,0,1,2.9-3h3.3a2.7,2.7,0,0,1,3,3V58.2a2.7,2.7,0,0,1-3,3h-3.3c-1.9,0-2.9-1-2.9-3Z" transform="translate(-2.9 -9.2)"/><path class="cls-2" d="M369.9,9.2a28.6,28.6,0,0,1,16.7,5.1c1.6,1.2,1.6,2.6.6,4.2l-1.3,2.1c-1,1.6-2.4,1.8-4.1.7a21.3,21.3,0,0,0-11.5-3.6c-11.2,0-17.1,8.1-17.1,17.6s6.2,18.3,17.2,18.3c5.7,0,10.1-2.8,12.5-4.5s3-1.1,4.2.5l1.4,2a2.7,2.7,0,0,1-.4,4.1A28.7,28.7,0,0,1,370,62.1c-16.1,0-26.4-11.6-26.4-26.7S354.5,9.2,369.9,9.2Z" transform="translate(-2.9 -9.2)"/><path class="cls-2" d="M397.3,13.1a2.7,2.7,0,0,1,2.9-3h3.4a2.7,2.7,0,0,1,2.9,3V30.9h6.7L424,12.2a3.6,3.6,0,0,1,3.5-2.1h3.6c2.3,0,3.2,1.6,2.1,3.6L420.8,34.4v.2l13.3,23c1.2,2.1.3,3.6-2.1,3.6h-4a3.6,3.6,0,0,1-3.5-2.1L413.2,38.9h-6.7V58.2c0,2-1,3-2.9,3h-3.4c-1.9,0-2.9-1-2.9-3Z" transform="translate(-2.9 -9.2)"/><path class="cls-2" d="M440.3,52.7l1.6-2.3c1.1-1.6,2.3-1.7,4.1-.6s5.4,3.7,10.4,3.7,7.6-2.4,7.6-5.8c0-9.8-23.8-7.7-23.8-23.7,0-9,7.5-14.8,17.2-14.8a23.7,23.7,0,0,1,13.2,3.9,2.8,2.8,0,0,1,.9,4.1l-1.3,2.4c-1.1,2.1-2.6,1.8-4.1,1a16.9,16.9,0,0,0-8.8-2.8c-4.8,0-7.8,2.3-7.8,5.7,0,9.6,23.8,7.2,23.8,23.4,0,8.3-6.2,15.2-16.9,15.2a27.3,27.3,0,0,1-15.7-5.2C439.6,55.9,438.8,54.6,440.3,52.7Z" transform="translate(-2.9 -9.2)"/></svg>